<svg width="30" height="20" viewBox="0 0 30 20" fill="none" xmlns="http://www.w3.org/2000/svg">
<path d="M12.3422 9.03976C12.9648 8.70576 13.4355 8.33376 13.758 7.93176C14.3318 7.20776 14.6149 6.24776 14.6149 5.05776C14.6149 3.89976 14.3318 2.90976 13.7655 2.07976C12.8204 0.727756 11.2209 0.0357559 8.95947 -0.000244141H0V19.5058H8.3538C9.29513 19.5058 10.1671 19.4198 10.9734 19.2438C11.7797 19.0658 12.4773 18.7398 13.0679 18.2638C13.593 17.8498 14.0318 17.3358 14.3805 16.7298C14.9318 15.8138 15.2075 14.7758 15.2075 13.6198C15.2075 12.4998 14.9656 11.5458 14.4855 10.7618C13.9999 9.97775 13.2873 9.40376 12.3422 9.03976ZM3.69592 3.38776H7.73125C8.6182 3.38776 9.34951 3.48976 9.9233 3.69176C10.5871 3.98576 10.919 4.58376 10.919 5.49576C10.919 6.31376 10.6659 6.88576 10.1652 7.20776C9.66078 7.52976 9.00635 7.69175 8.20379 7.69175H3.69592V3.38776ZM10.0771 15.7778C9.63078 16.0078 9.0026 16.1218 8.19816 16.1218H3.69592V10.9198H8.26004C9.05511 10.9258 9.67391 11.0378 10.1164 11.2478C10.904 11.6278 11.2959 12.3238 11.2959 13.3418C11.2959 14.5418 10.8909 15.3498 10.0771 15.7778Z" fill="#A8A8A8"/>
<path d="M27.1164 0.909912H19.1714V3.33791H27.1164V0.909912Z" fill="#A8A8A8"/>
<path d="M29.8766 10.492C29.7116 9.36196 29.3478 8.36796 28.7815 7.50996C28.1609 6.53796 27.3733 5.82596 26.4151 5.37596C25.4606 4.92396 24.3862 4.69796 23.1898 4.69996C21.1815 4.69996 19.5502 5.36996 18.2882 6.69996C17.03 8.03396 16.3999 9.95196 16.3999 12.452C16.3999 15.118 17.0956 17.044 18.4944 18.226C19.8877 19.41 21.4966 20 23.323 20C25.5338 20 27.2533 19.298 28.4815 17.898C29.2672 17.014 29.7116 16.144 29.8091 15.29H26.1488C25.9369 15.712 25.6913 16.042 25.41 16.282C24.9 16.722 24.2362 16.942 23.4223 16.942C22.6479 16.942 21.9916 16.76 21.4441 16.398C20.5402 15.818 20.0677 14.802 20.0077 13.356H29.9966C30.0116 12.11 29.9741 11.152 29.8766 10.492ZM20.0977 10.866C20.229 9.92796 20.5477 9.18396 21.054 8.63396C21.5603 8.08596 22.2766 7.80996 23.1936 7.80796C24.0393 7.80796 24.7462 8.06596 25.3219 8.58396C25.89 9.10596 26.2107 9.86396 26.2763 10.866H20.0977Z" fill="#A8A8A8"/>
</svg>
