<svg width="150" height="31" viewBox="0 0 150 31" fill="none" xmlns="http://www.w3.org/2000/svg">
<path opacity="0.62" fill-rule="evenodd" clip-rule="evenodd" d="M2.77722 29.4096C2.77814 29.1486 2.70156 28.8932 2.55714 28.6758C2.41273 28.4583 2.20699 28.2886 1.966 28.1881C1.72502 28.0877 1.45961 28.0609 1.20341 28.1113C0.947224 28.1618 0.711779 28.2871 0.526886 28.4714C0.341993 28.6557 0.215976 28.8907 0.16481 29.1466C0.113644 29.4026 0.139635 29.6679 0.239471 29.9091C0.339308 30.1503 0.508487 30.3564 0.725616 30.5014C0.942746 30.6464 1.19804 30.7237 1.45915 30.7235C1.80808 30.7235 2.14278 30.5852 2.38986 30.3389C2.63694 30.0926 2.77624 29.7584 2.77722 29.4096ZM2.77722 15.4359C2.77814 15.1749 2.70156 14.9195 2.55714 14.7021C2.41273 14.4846 2.20699 14.3149 1.966 14.2145C1.72502 14.114 1.45961 14.0872 1.20341 14.1377C0.947224 14.1881 0.711779 14.3134 0.526886 14.4977C0.341993 14.682 0.215976 14.917 0.16481 15.1729C0.113644 15.4289 0.139635 15.6943 0.239471 15.9354C0.339308 16.1766 0.508487 16.3828 0.725616 16.5277C0.942746 16.6727 1.19804 16.75 1.45915 16.7498C1.80822 16.7503 2.14318 16.6121 2.39035 16.3657C2.63753 16.1193 2.77668 15.7849 2.77722 15.4359ZM2.63985 1.32314C2.64058 1.06203 2.56379 0.806562 2.4192 0.589096C2.27462 0.37163 2.06874 0.201946 1.82762 0.101513C1.5865 0.00107934 1.321 -0.02559 1.06471 0.0249004C0.808428 0.0753909 0.572891 0.200752 0.387924 0.385128C0.202958 0.569504 0.076866 0.804596 0.0256348 1.06064C-0.0255965 1.31668 0.00033617 1.58215 0.100128 1.82346C0.19992 2.06477 0.369087 2.27109 0.586227 2.41624C0.803368 2.56138 1.05872 2.63883 1.31993 2.63883C1.49302 2.63907 1.66445 2.60524 1.82446 2.53925C1.98447 2.47326 2.12992 2.3764 2.25249 2.25423C2.37505 2.13205 2.47234 1.98698 2.5388 1.82722C2.60527 1.66746 2.6396 1.49617 2.63985 1.32314ZM19.0285 29.5469C19.0292 29.2858 18.9524 29.0304 18.8078 28.8129C18.6632 28.5954 18.4574 28.4257 18.2162 28.3253C17.9751 28.2249 17.7096 28.1982 17.4533 28.2487C17.197 28.2992 16.9615 28.4246 16.7765 28.609C16.5916 28.7934 16.4655 29.0284 16.4142 29.2845C16.363 29.5405 16.3889 29.806 16.4887 30.0473C16.5885 30.2886 16.7577 30.4949 16.9749 30.64C17.192 30.7852 17.4473 30.8627 17.7085 30.8627C17.8816 30.8629 18.0531 30.8291 18.2131 30.7631C18.3731 30.6971 18.5185 30.6002 18.6411 30.4781C18.7637 30.3559 18.8609 30.2108 18.9274 30.051C18.9939 29.8913 19.0282 29.72 19.0285 29.5469ZM19.0285 15.5733C19.0292 15.3122 18.9524 15.0567 18.8078 14.8393C18.6632 14.6218 18.4574 14.4521 18.2162 14.3516C17.9751 14.2512 17.7096 14.2246 17.4533 14.2751C17.197 14.3256 16.9615 14.4509 16.7765 14.6353C16.5916 14.8197 16.4655 15.0548 16.4142 15.3108C16.363 15.5669 16.3889 15.8323 16.4887 16.0736C16.5885 16.3149 16.7577 16.5212 16.9749 16.6664C17.192 16.8115 17.4473 16.889 17.7085 16.889C17.8816 16.8892 18.0531 16.8554 18.2131 16.7894C18.3731 16.7234 18.5185 16.6266 18.6411 16.5044C18.7637 16.3822 18.8609 16.2371 18.9274 16.0773C18.9939 15.9176 19.0282 15.7463 19.0285 15.5733ZM18.8892 1.46232C18.8903 1.20113 18.8139 0.945487 18.6695 0.727777C18.5251 0.510068 18.3194 0.340051 18.0783 0.239332C17.8372 0.138614 17.5716 0.111717 17.3152 0.161997C17.0588 0.212277 16.8231 0.337515 16.638 0.521816C16.4528 0.706118 16.3266 0.94119 16.2752 1.19728C16.2238 1.45338 16.2496 1.71895 16.3493 1.96037C16.4491 2.20179 16.6182 2.4082 16.8354 2.55343C17.0526 2.69866 17.308 2.77615 17.5693 2.77615C17.7423 2.77657 17.9137 2.74292 18.0736 2.67711C18.2336 2.6113 18.379 2.51461 18.5016 2.39259C18.6242 2.27058 18.7215 2.12566 18.788 1.96604C18.8545 1.80641 18.8889 1.63524 18.8892 1.46232ZM35.2779 29.4096C35.2788 29.1487 35.2022 28.8934 35.0579 28.6759C34.9135 28.4585 34.7079 28.2888 34.467 28.1883C34.2262 28.0878 33.9609 28.0609 33.7047 28.1112C33.4486 28.1615 33.2131 28.2866 33.0282 28.4707C32.8432 28.6548 32.717 28.8897 32.6656 29.1455C32.6143 29.4013 32.64 29.6666 32.7395 29.9079C32.8391 30.1491 33.008 30.3553 33.2249 30.5005C33.4418 30.6457 33.6969 30.7233 33.9579 30.7235C34.3072 30.724 34.6423 30.5859 34.8898 30.3396C35.1373 30.0932 35.2769 29.7587 35.2779 29.4096ZM35.2779 15.4359C35.2788 15.175 35.2022 14.9197 35.0579 14.7023C34.9135 14.4849 34.7079 14.3152 34.467 14.2146C34.2262 14.1141 33.9609 14.0873 33.7047 14.1375C33.4486 14.1878 33.2131 14.3129 33.0282 14.497C32.8432 14.6811 32.717 14.916 32.6656 15.1718C32.6143 15.4276 32.64 15.693 32.7395 15.9342C32.8391 16.1754 33.008 16.3816 33.2249 16.5268C33.4418 16.672 33.6969 16.7496 33.9579 16.7498C34.1309 16.7502 34.3023 16.7166 34.4622 16.6508C34.6222 16.585 34.7676 16.4883 34.8902 16.3663C35.0128 16.2443 35.1101 16.0993 35.1766 15.9397C35.2431 15.78 35.2775 15.6089 35.2779 15.4359ZM35.1386 1.32314C35.1392 1.06229 35.0623 0.80713 34.9177 0.589958C34.7732 0.372787 34.5674 0.203348 34.3265 0.1031C34.0856 0.00285172 33.8204 -0.0237245 33.5643 0.0267601C33.3083 0.0772447 33.073 0.202522 32.8883 0.386713C32.7035 0.570904 32.5775 0.805768 32.5263 1.06155C32.4751 1.31732 32.5009 1.58253 32.6005 1.82364C32.7001 2.06474 32.869 2.27085 33.0859 2.41597C33.3027 2.56108 33.5577 2.63864 33.8187 2.63883C33.9918 2.63924 34.1633 2.60554 34.3234 2.53961C34.4835 2.47368 34.629 2.37685 34.7516 2.25464C34.8742 2.13243 34.9715 1.98724 35.0379 1.8274C35.1043 1.66756 35.1385 1.49622 35.1386 1.32314ZM52.0842 29.4096C52.0853 29.1484 52.0088 28.8928 51.8644 28.6751C51.7201 28.4574 51.5143 28.2874 51.2732 28.1867C51.0321 28.086 50.7666 28.0591 50.5102 28.1093C50.2538 28.1596 50.018 28.2848 49.8329 28.4691C49.6477 28.6534 49.5215 28.8885 49.4701 29.1446C49.4187 29.4007 49.4445 29.6663 49.5443 29.9077C49.644 30.1491 49.8132 30.3555 50.0303 30.5007C50.2475 30.646 50.5029 30.7235 50.7642 30.7235C51.1134 30.7236 51.4483 30.5854 51.6957 30.3391C51.9431 30.0929 52.0828 29.7586 52.0842 29.4096ZM52.0842 15.4359C52.0853 15.1748 52.0088 14.9192 51.8644 14.7015C51.7201 14.4837 51.5143 14.3137 51.2732 14.213C51.0321 14.1123 50.7666 14.0854 50.5102 14.1357C50.2538 14.1859 50.018 14.3111 49.8329 14.4954C49.6477 14.6797 49.5215 14.9149 49.4701 15.171C49.4187 15.427 49.4445 15.6926 49.5443 15.934C49.644 16.1755 49.8132 16.3818 50.0303 16.5271C50.2475 16.6723 50.5029 16.7498 50.7642 16.7498C51.1135 16.7503 51.4486 16.6122 51.6961 16.3659C51.9436 16.1196 52.0832 15.7851 52.0842 15.4359ZM51.9449 1.32314C51.9457 1.06203 51.8689 0.806562 51.7243 0.589096C51.5797 0.37163 51.3738 0.201946 51.1327 0.101513C50.8916 0.00107934 50.6261 -0.02559 50.3698 0.0249004C50.1135 0.0753909 49.8779 0.200752 49.693 0.385128C49.508 0.569504 49.382 0.804596 49.3307 1.06064C49.2795 1.31668 49.3054 1.58215 49.4052 1.82346C49.505 2.06477 49.6742 2.27109 49.8913 2.41624C50.1084 2.56138 50.3638 2.63883 50.625 2.63883C50.7981 2.63924 50.9697 2.60554 51.1298 2.53961C51.2898 2.47368 51.4353 2.37685 51.5579 2.25464C51.6805 2.13243 51.7778 1.98724 51.8442 1.8274C51.9106 1.66756 51.9449 1.49622 51.9449 1.32314ZM68.3335 29.4096C68.3346 29.1484 68.2582 28.8928 68.1138 28.6751C67.9694 28.4574 67.7637 28.2874 67.5226 28.1867C67.2815 28.086 67.0159 28.0591 66.7595 28.1093C66.5031 28.1596 66.2674 28.2848 66.0823 28.4691C65.8971 28.6534 65.7709 28.8885 65.7195 29.1446C65.6681 29.4007 65.6939 29.6663 65.7936 29.9077C65.8934 30.1491 66.0626 30.3555 66.2797 30.5007C66.4969 30.646 66.7523 30.7235 67.0136 30.7235C67.3629 30.724 67.698 30.5859 67.9455 30.3396C68.193 30.0932 68.3325 29.7587 68.3335 29.4096ZM68.3335 15.4359C68.3346 15.1748 68.2582 14.9192 68.1138 14.7015C67.9694 14.4837 67.7637 14.3137 67.5226 14.213C67.2815 14.1123 67.0159 14.0854 66.7595 14.1357C66.5031 14.1859 66.2674 14.3111 66.0823 14.4954C65.8971 14.6797 65.7709 14.9149 65.7195 15.171C65.6681 15.427 65.6939 15.6926 65.7936 15.934C65.8934 16.1755 66.0626 16.3818 66.2797 16.5271C66.4969 16.6723 66.7523 16.7498 67.0136 16.7498C67.1866 16.7502 67.3579 16.7166 67.5179 16.6508C67.6779 16.585 67.8233 16.4883 67.9459 16.3663C68.0685 16.2443 68.1658 16.0993 68.2323 15.9397C68.2988 15.78 68.3332 15.6089 68.3335 15.4359ZM68.1943 1.32314C68.1948 1.06229 68.118 0.80713 67.9734 0.589958C67.8289 0.372787 67.6231 0.203348 67.3822 0.1031C67.1413 0.00285172 66.8761 -0.0237245 66.62 0.0267601C66.364 0.0772447 66.1287 0.202522 65.944 0.386713C65.7592 0.570904 65.6332 0.805768 65.582 1.06155C65.5308 1.31732 65.5566 1.58253 65.6562 1.82364C65.7558 2.06474 65.9247 2.27085 66.1415 2.41597C66.3584 2.56108 66.6134 2.63864 66.8744 2.63883C67.0475 2.63924 67.219 2.60554 67.3791 2.53961C67.5392 2.47368 67.6847 2.37685 67.8073 2.25464C67.9299 2.13243 68.0272 1.98724 68.0936 1.8274C68.16 1.66756 68.1942 1.49622 68.1943 1.32314ZM84.5829 29.5469C84.5835 29.286 84.5066 29.0308 84.3619 28.8136C84.2173 28.5964 84.0114 28.427 83.7704 28.3268C83.5294 28.2266 83.264 28.2001 83.008 28.2507C82.7519 28.3014 82.5166 28.4268 82.3319 28.6112C82.1472 28.7956 82.0214 29.0306 81.9704 29.2865C81.9193 29.5424 81.9454 29.8077 82.0453 30.0488C82.1452 30.2898 82.3144 30.4958 82.5315 30.6407C82.7486 30.7856 83.0038 30.8629 83.2648 30.8627C83.4378 30.8629 83.6092 30.829 83.7691 30.763C83.929 30.697 84.0743 30.6001 84.1967 30.4779C84.3191 30.3557 84.4162 30.2106 84.4825 30.0509C84.5488 29.8911 84.5829 29.7199 84.5829 29.5469ZM84.5829 15.5733C84.5835 15.3124 84.5066 15.0571 84.3619 14.8399C84.2173 14.6227 84.0114 14.4533 83.7704 14.3531C83.5294 14.2529 83.264 14.2264 83.008 14.2771C82.7519 14.3277 82.5166 14.4531 82.3319 14.6375C82.1472 14.8219 82.0214 15.0569 81.9704 15.3128C81.9193 15.5687 81.9454 15.834 82.0453 16.0751C82.1452 16.3162 82.3144 16.5222 82.5315 16.667C82.7486 16.8119 83.0038 16.8892 83.2648 16.889C83.4378 16.8892 83.6092 16.8553 83.7691 16.7893C83.929 16.7233 84.0743 16.6265 84.1967 16.5043C84.3191 16.3821 84.4162 16.237 84.4825 16.0772C84.5488 15.9175 84.5829 15.7462 84.5829 15.5733ZM84.4437 1.46232C84.4446 1.20131 84.368 0.945866 84.2236 0.728411C84.0792 0.510955 83.8734 0.341262 83.6324 0.240784C83.3915 0.140305 83.1261 0.113565 82.8699 0.16399C82.6137 0.214415 82.3782 0.339734 82.1933 0.524036C82.0085 0.708339 81.8824 0.943369 81.8313 1.19932C81.7801 1.45527 81.8061 1.72064 81.9059 1.96182C82.0058 2.203 82.175 2.40913 82.3921 2.55411C82.6092 2.69908 82.8645 2.77633 83.1256 2.77615C83.4747 2.77659 83.8096 2.63843 84.0568 2.39205C84.304 2.14566 84.4431 1.81126 84.4437 1.46232ZM100.972 29.6861C100.972 29.4251 100.896 29.1697 100.751 28.9523C100.607 28.7348 100.401 28.5651 100.16 28.4646C99.9193 28.3642 99.6539 28.3374 99.3977 28.3878C99.1415 28.4383 98.9061 28.5636 98.7212 28.7479C98.5363 28.9322 98.4103 29.1672 98.3591 29.4231C98.3079 29.6791 98.3339 29.9444 98.4338 30.1856C98.5336 30.4268 98.7028 30.6329 98.9199 30.7779C99.1371 30.9229 99.3924 31.0002 99.6535 31C100.003 31.0004 100.337 30.8623 100.585 30.6159C100.832 30.3695 100.971 30.0351 100.972 29.6861ZM100.972 15.7125C100.972 15.4515 100.896 15.196 100.751 14.9786C100.607 14.7611 100.401 14.5914 100.16 14.491C99.9193 14.3905 99.6539 14.3637 99.3977 14.4142C99.1415 14.4646 98.9061 14.5899 98.7212 14.7742C98.5363 14.9585 98.4103 15.1935 98.3591 15.4495C98.3079 15.7054 98.3339 15.9708 98.4338 16.212C98.5336 16.4531 98.7028 16.6593 98.9199 16.8042C99.1371 16.9492 99.3924 17.0265 99.6535 17.0263C100.003 17.0268 100.337 16.8886 100.585 16.6422C100.832 16.3958 100.971 16.0614 100.972 15.7125ZM100.834 1.59965C100.835 1.33853 100.758 1.08306 100.614 0.865597C100.469 0.648131 100.263 0.478449 100.022 0.378016C99.7808 0.277582 99.5153 0.250911 99.259 0.301401C99.0027 0.351892 98.7672 0.477252 98.5822 0.661629C98.3972 0.846005 98.2712 1.0811 98.2199 1.33714C98.1687 1.59319 98.1946 1.85869 98.2944 2.1C98.3942 2.34131 98.5634 2.5476 98.7805 2.69274C98.9977 2.83789 99.253 2.91533 99.5142 2.91533C99.6873 2.91557 99.8588 2.88174 100.019 2.81575C100.179 2.74976 100.324 2.65295 100.447 2.53077C100.569 2.4086 100.667 2.26348 100.733 2.10372C100.8 1.94396 100.834 1.77267 100.834 1.59965ZM117.361 29.4096C117.362 29.1485 117.286 28.893 117.141 28.6754C116.997 28.4578 116.791 28.2879 116.55 28.1873C116.309 28.0866 116.044 28.0598 115.787 28.1101C115.531 28.1604 115.296 28.2856 115.11 28.4699C114.925 28.6542 114.799 28.8892 114.748 29.1452C114.697 29.4012 114.722 29.6667 114.822 29.908C114.922 30.1494 115.091 30.3556 115.308 30.5008C115.525 30.646 115.78 30.7235 116.042 30.7235C116.391 30.7239 116.726 30.5858 116.973 30.3394C117.221 30.0931 117.36 29.7587 117.361 29.4096ZM117.361 15.4359C117.362 15.1748 117.286 14.9193 117.141 14.7017C116.997 14.4841 116.791 14.3143 116.55 14.2136C116.309 14.113 116.044 14.0861 115.787 14.1364C115.531 14.1867 115.296 14.3119 115.11 14.4962C114.925 14.6805 114.799 14.9155 114.748 15.1715C114.697 15.4276 114.722 15.693 114.822 15.9344C114.922 16.1757 115.091 16.382 115.308 16.5271C115.525 16.6723 115.78 16.7498 116.042 16.7498C116.215 16.7502 116.386 16.7164 116.546 16.6506C116.706 16.5848 116.851 16.4881 116.974 16.3661C117.096 16.2441 117.194 16.0992 117.26 15.9396C117.327 15.78 117.361 15.6088 117.361 15.4359ZM117.222 1.32314C117.223 1.06212 117.146 0.806769 117.002 0.589413C116.857 0.372056 116.651 0.202451 116.41 0.102102C116.169 0.00175376 115.904 -0.0248471 115.647 0.025671C115.391 0.0761892 115.156 0.201559 114.971 0.385899C114.786 0.570238 114.66 0.805267 114.609 1.06123C114.558 1.31719 114.584 1.58255 114.683 1.82377C114.783 2.06499 114.952 2.2712 115.169 2.41628C115.386 2.56137 115.642 2.63883 115.903 2.63883C116.076 2.63915 116.247 2.60535 116.407 2.53938C116.567 2.47342 116.713 2.3766 116.835 2.25441C116.958 2.13221 117.055 1.98706 117.122 1.82726C117.188 1.66747 117.222 1.49617 117.222 1.32314ZM133.75 29.4096C133.751 29.1485 133.675 28.893 133.53 28.6754C133.386 28.4578 133.18 28.2879 132.939 28.1873C132.698 28.0866 132.433 28.0598 132.176 28.1101C131.92 28.1604 131.684 28.2856 131.499 28.4699C131.314 28.6542 131.188 28.8893 131.137 29.1453C131.085 29.4013 131.111 29.6668 131.211 29.9081C131.311 30.1495 131.48 30.3558 131.697 30.5009C131.914 30.6461 132.169 30.7235 132.431 30.7235C132.78 30.7238 133.115 30.5857 133.362 30.3393C133.61 30.093 133.749 29.7586 133.75 29.4096ZM133.75 15.4359C133.751 15.1748 133.675 14.9193 133.53 14.7017C133.386 14.4841 133.18 14.3142 132.939 14.2136C132.698 14.113 132.433 14.0861 132.176 14.1364C131.92 14.1868 131.684 14.312 131.499 14.4963C131.314 14.6806 131.188 14.9156 131.137 15.1716C131.085 15.4277 131.111 15.6932 131.211 15.9345C131.311 16.1758 131.48 16.3821 131.697 16.5272C131.914 16.6724 132.169 16.7499 132.431 16.7498C132.78 16.7505 133.115 16.6124 133.363 16.366C133.61 16.1196 133.749 15.7851 133.75 15.4359ZM133.611 1.32314C133.612 1.06211 133.535 0.806727 133.39 0.589367C133.246 0.372007 133.04 0.202445 132.799 0.102102C132.558 0.0017592 132.292 -0.0248622 132.036 0.025671C131.78 0.0762042 131.545 0.201588 131.36 0.385946C131.175 0.570304 131.049 0.805347 130.998 1.06132C130.946 1.3173 130.972 1.58269 131.072 1.82391C131.172 2.06513 131.341 2.27131 131.558 2.41638C131.775 2.56144 132.031 2.63886 132.292 2.63883C132.465 2.63915 132.636 2.60535 132.796 2.53938C132.956 2.47341 133.102 2.37656 133.224 2.25436C133.347 2.13216 133.444 1.98705 133.511 1.82726C133.577 1.66747 133.611 1.49617 133.611 1.32314ZM150 29.4096C150.001 29.1485 149.925 28.893 149.78 28.6754C149.636 28.4578 149.43 28.2879 149.189 28.1873C148.948 28.0866 148.682 28.0598 148.426 28.1101C148.17 28.1604 147.934 28.2856 147.749 28.4699C147.564 28.6542 147.438 28.8893 147.387 29.1453C147.335 29.4013 147.361 29.6668 147.461 29.9081C147.561 30.1495 147.73 30.3558 147.947 30.5009C148.164 30.6461 148.419 30.7235 148.681 30.7235C149.03 30.7238 149.365 30.5857 149.612 30.3393C149.86 30.093 149.999 29.7586 150 29.4096ZM150 15.4359C150.001 15.1748 149.925 14.9193 149.78 14.7017C149.636 14.4841 149.43 14.3142 149.189 14.2136C148.948 14.113 148.682 14.0861 148.426 14.1364C148.17 14.1868 147.934 14.312 147.749 14.4963C147.564 14.6806 147.438 14.9156 147.387 15.1716C147.335 15.4277 147.361 15.6932 147.461 15.9345C147.561 16.1758 147.73 16.3821 147.947 16.5272C148.164 16.6724 148.419 16.7499 148.681 16.7498C149.03 16.7505 149.365 16.6124 149.612 16.366C149.86 16.1196 149.999 15.7851 150 15.4359ZM149.861 1.32314C149.862 1.06211 149.785 0.806727 149.64 0.589367C149.496 0.372007 149.29 0.202445 149.049 0.102102C148.808 0.0017592 148.542 -0.0248622 148.286 0.025671C148.03 0.0762042 147.794 0.201588 147.61 0.385946C147.425 0.570304 147.299 0.805347 147.248 1.06132C147.196 1.3173 147.222 1.58269 147.322 1.82391C147.422 2.06513 147.591 2.27131 147.808 2.41638C148.025 2.56144 148.281 2.63886 148.542 2.63883C148.715 2.63915 148.886 2.60535 149.046 2.53938C149.206 2.47341 149.352 2.37656 149.474 2.25436C149.597 2.13216 149.694 1.98705 149.76 1.82726C149.827 1.66747 149.861 1.49617 149.861 1.32314Z" fill="#9E9E9E"/>
</svg>
