<svg width="31" height="150" viewBox="0 0 31 150" fill="none" xmlns="http://www.w3.org/2000/svg">
<path opacity="0.62" fill-rule="evenodd" clip-rule="evenodd" d="M1.59038 2.77722C1.85139 2.77814 2.10679 2.70156 2.32424 2.55714C2.5417 2.41273 2.71139 2.20699 2.81187 1.966C2.91235 1.72502 2.93909 1.45961 2.88866 1.20341C2.83824 0.947224 2.71292 0.711779 2.52862 0.526886C2.34432 0.341993 2.10933 0.215976 1.85338 0.16481C1.59743 0.113644 1.33206 0.139635 1.09088 0.239471C0.8497 0.339308 0.643566 0.508487 0.498593 0.725616C0.35362 0.942746 0.276321 1.19804 0.276503 1.45915C0.276502 1.80808 0.414816 2.14278 0.661106 2.38986C0.907396 2.63694 1.24158 2.77624 1.59038 2.77722ZM15.5641 2.77722C15.8251 2.77814 16.0805 2.70156 16.2979 2.55714C16.5154 2.41273 16.6851 2.20699 16.7855 1.966C16.886 1.72502 16.9128 1.45961 16.8623 1.20341C16.8119 0.947224 16.6866 0.711779 16.5023 0.526886C16.318 0.341993 16.083 0.215976 15.8271 0.16481C15.5711 0.113644 15.3057 0.139635 15.0646 0.239471C14.8234 0.339308 14.6172 0.508487 14.4723 0.725616C14.3273 0.942746 14.25 1.19804 14.2502 1.45915C14.2497 1.80822 14.3879 2.14318 14.6343 2.39035C14.8807 2.63753 15.2151 2.77668 15.5641 2.77722ZM29.6769 2.63985C29.938 2.64058 30.1934 2.56379 30.4109 2.4192C30.6284 2.27462 30.7981 2.06874 30.8985 1.82762C30.9989 1.5865 31.0256 1.321 30.9751 1.06471C30.9246 0.808428 30.7992 0.572891 30.6149 0.387924C30.4305 0.202958 30.1954 0.076866 29.9394 0.0256348C29.6833 -0.0255965 29.4179 0.00033617 29.1765 0.100128C28.9352 0.19992 28.7289 0.369087 28.5838 0.586227C28.4386 0.803368 28.3612 1.05872 28.3612 1.31993C28.3609 1.49302 28.3948 1.66445 28.4608 1.82446C28.5267 1.98447 28.6236 2.12992 28.7458 2.25249C28.8679 2.37505 29.013 2.47234 29.1728 2.5388C29.3325 2.60527 29.5038 2.6396 29.6769 2.63985ZM1.45305 19.0285C1.71417 19.0292 1.96963 18.9524 2.1871 18.8078C2.40457 18.6632 2.57425 18.4574 2.67468 18.2162C2.77512 17.9751 2.80179 17.7096 2.7513 17.4533C2.70081 17.197 2.5754 16.9615 2.39102 16.7765C2.20665 16.5916 1.97156 16.4655 1.71551 16.4142C1.45947 16.363 1.194 16.3889 0.952695 16.4887C0.711385 16.5885 0.505102 16.7577 0.359957 16.9749C0.214812 17.192 0.137324 17.4473 0.137323 17.7085C0.13708 17.8816 0.170917 18.0531 0.236906 18.2131C0.302895 18.3731 0.39975 18.5185 0.521926 18.6411C0.644101 18.7637 0.789218 18.8609 0.94898 18.9274C1.10874 18.9939 1.28003 19.0282 1.45305 19.0285ZM15.4267 19.0285C15.6878 19.0292 15.9433 18.9524 16.1607 18.8078C16.3782 18.6632 16.5479 18.4574 16.6484 18.2162C16.7488 17.9751 16.7754 17.7096 16.7249 17.4533C16.6744 17.197 16.5491 16.9615 16.3647 16.7765C16.1803 16.5916 15.9452 16.4655 15.6892 16.4142C15.4331 16.363 15.1677 16.3889 14.9264 16.4887C14.6851 16.5885 14.4788 16.7577 14.3336 16.9749C14.1885 17.192 14.111 17.4473 14.111 17.7085C14.1108 17.8816 14.1446 18.0531 14.2106 18.2131C14.2766 18.3731 14.3734 18.5185 14.4956 18.6411C14.6178 18.7637 14.7629 18.8609 14.9227 18.9274C15.0824 18.9939 15.2537 19.0282 15.4267 19.0285ZM29.5377 18.8892C29.7989 18.8903 30.0545 18.8139 30.2722 18.6695C30.4899 18.5251 30.6599 18.3194 30.7607 18.0783C30.8614 17.8372 30.8883 17.5716 30.838 17.3152C30.7877 17.0588 30.6625 16.8231 30.4782 16.638C30.2939 16.4528 30.0588 16.3266 29.8027 16.2752C29.5466 16.2238 29.281 16.2496 29.0396 16.3493C28.7982 16.4491 28.5918 16.6182 28.4466 16.8354C28.3013 17.0526 28.2239 17.308 28.2238 17.5693C28.2234 17.7423 28.2571 17.9137 28.3229 18.0736C28.3887 18.2336 28.4854 18.379 28.6074 18.5016C28.7294 18.6242 28.8743 18.7215 29.034 18.788C29.1936 18.8545 29.3648 18.8889 29.5377 18.8892ZM1.59038 35.2779C1.85131 35.2788 2.10665 35.2022 2.32406 35.0579C2.54148 34.9135 2.71116 34.7079 2.81169 34.467C2.91222 34.2262 2.93907 33.9609 2.8888 33.7047C2.83853 33.4486 2.71341 33.2131 2.5293 33.0282C2.34518 32.8432 2.11034 32.717 1.85451 32.6656C1.59868 32.6143 1.33336 32.64 1.09215 32.7395C0.850936 32.8391 0.644695 33.008 0.499499 33.2249C0.354303 33.4418 0.276689 33.6969 0.276503 33.9579C0.27601 34.3072 0.414083 34.6423 0.660426 34.8898C0.906769 35.1373 1.24126 35.2769 1.59038 35.2779ZM15.5641 35.2779C15.825 35.2788 16.0803 35.2022 16.2977 35.0579C16.5151 34.9135 16.6848 34.7079 16.7854 34.467C16.8859 34.2262 16.9127 33.9609 16.8625 33.7047C16.8122 33.4486 16.6871 33.2131 16.503 33.0282C16.3189 32.8432 16.084 32.717 15.8282 32.6656C15.5724 32.6143 15.307 32.64 15.0658 32.7395C14.8246 32.8391 14.6184 33.008 14.4732 33.2249C14.328 33.4418 14.2504 33.6969 14.2502 33.9579C14.2498 34.1309 14.2834 34.3023 14.3492 34.4622C14.415 34.6222 14.5117 34.7676 14.6337 34.8902C14.7557 35.0128 14.9007 35.1101 15.0603 35.1766C15.22 35.2431 15.3911 35.2775 15.5641 35.2779ZM29.6769 35.1386C29.9377 35.1392 30.1929 35.0623 30.41 34.9177C30.6272 34.7732 30.7967 34.5674 30.8969 34.3265C30.9971 34.0856 31.0237 33.8204 30.9732 33.5643C30.9228 33.3083 30.7975 33.073 30.6133 32.8883C30.4291 32.7035 30.1942 32.5775 29.9385 32.5263C29.6827 32.4751 29.4175 32.5009 29.1764 32.6005C28.9353 32.7001 28.7291 32.869 28.584 33.0859C28.4389 33.3027 28.3614 33.5577 28.3612 33.8187C28.3608 33.9918 28.3945 34.1633 28.4604 34.3234C28.5263 34.4835 28.6232 34.629 28.7454 34.7516C28.8676 34.8742 29.0128 34.9715 29.1726 35.0379C29.3324 35.1043 29.5038 35.1385 29.6769 35.1386ZM1.59038 52.0842C1.85157 52.0853 2.10721 52.0088 2.32492 51.8644C2.54263 51.7201 2.7126 51.5143 2.81332 51.2732C2.91404 51.0321 2.94094 50.7666 2.89066 50.5102C2.84038 50.2538 2.71518 50.018 2.53088 49.8329C2.34658 49.6477 2.11147 49.5215 1.85537 49.4701C1.59928 49.4187 1.3337 49.4445 1.09228 49.5443C0.850864 49.644 0.644501 49.8132 0.499273 50.0303C0.354045 50.2475 0.276506 50.5029 0.276503 50.7642C0.276402 51.1134 0.414621 51.4483 0.660879 51.6957C0.907138 51.9431 1.24138 52.0828 1.59038 52.0842ZM15.5641 52.0842C15.8252 52.0853 16.0808 52.0088 16.2985 51.8644C16.5163 51.7201 16.6863 51.5143 16.787 51.2732C16.8877 51.0321 16.9146 50.7666 16.8643 50.5102C16.8141 50.2538 16.6889 50.018 16.5046 49.8329C16.3203 49.6477 16.0851 49.5215 15.829 49.4701C15.573 49.4187 15.3074 49.4445 15.066 49.5443C14.8245 49.644 14.6182 49.8132 14.4729 50.0303C14.3277 50.2475 14.2502 50.5029 14.2502 50.7642C14.2497 51.1135 14.3878 51.4486 14.6341 51.6961C14.8804 51.9436 15.2149 52.0832 15.5641 52.0842ZM29.6769 51.9449C29.938 51.9457 30.1934 51.8689 30.4109 51.7243C30.6284 51.5797 30.7981 51.3738 30.8985 51.1327C30.9989 50.8916 31.0256 50.6261 30.9751 50.3698C30.9246 50.1135 30.7992 49.8779 30.6149 49.693C30.4305 49.508 30.1954 49.382 29.9394 49.3307C29.6833 49.2795 29.4179 49.3054 29.1765 49.4052C28.9352 49.505 28.7289 49.6742 28.5838 49.8913C28.4386 50.1084 28.3612 50.3638 28.3612 50.625C28.3608 50.7981 28.3945 50.9697 28.4604 51.1298C28.5263 51.2898 28.6232 51.4353 28.7454 51.5579C28.8676 51.6805 29.0128 51.7778 29.1726 51.8442C29.3324 51.9106 29.5038 51.9449 29.6769 51.9449ZM1.59038 68.3335C1.85157 68.3346 2.10721 68.2582 2.32492 68.1138C2.54263 67.9694 2.7126 67.7637 2.81332 67.5226C2.91404 67.2815 2.94094 67.0159 2.89066 66.7595C2.84038 66.5031 2.71518 66.2674 2.53088 66.0823C2.34658 65.8971 2.11147 65.7709 1.85537 65.7195C1.59928 65.6681 1.3337 65.6939 1.09228 65.7936C0.850864 65.8934 0.644501 66.0626 0.499273 66.2797C0.354045 66.4969 0.276506 66.7523 0.276503 67.0136C0.27601 67.3629 0.414083 67.698 0.660426 67.9455C0.906769 68.193 1.24126 68.3325 1.59038 68.3335ZM15.5641 68.3335C15.8252 68.3346 16.0808 68.2582 16.2985 68.1138C16.5163 67.9694 16.6863 67.7637 16.787 67.5226C16.8877 67.2815 16.9146 67.0159 16.8643 66.7595C16.8141 66.5031 16.6889 66.2674 16.5046 66.0823C16.3203 65.8971 16.0851 65.7709 15.829 65.7195C15.573 65.6681 15.3074 65.6939 15.066 65.7936C14.8245 65.8934 14.6182 66.0626 14.4729 66.2797C14.3277 66.4969 14.2502 66.7523 14.2502 67.0136C14.2498 67.1866 14.2834 67.3579 14.3492 67.5179C14.415 67.6779 14.5117 67.8233 14.6337 67.9459C14.7557 68.0685 14.9007 68.1658 15.0603 68.2323C15.22 68.2988 15.3911 68.3332 15.5641 68.3335ZM29.6769 68.1943C29.9377 68.1948 30.1929 68.118 30.41 67.9734C30.6272 67.8289 30.7967 67.6231 30.8969 67.3822C30.9971 67.1413 31.0237 66.8761 30.9732 66.62C30.9228 66.364 30.7975 66.1287 30.6133 65.944C30.4291 65.7592 30.1942 65.6332 29.9385 65.582C29.6827 65.5308 29.4175 65.5566 29.1764 65.6562C28.9353 65.7558 28.7291 65.9247 28.584 66.1415C28.4389 66.3584 28.3614 66.6134 28.3612 66.8744C28.3608 67.0475 28.3945 67.219 28.4604 67.3791C28.5263 67.5392 28.6232 67.6847 28.7454 67.8073C28.8676 67.9299 29.0128 68.0272 29.1726 68.0936C29.3324 68.16 29.5038 68.1942 29.6769 68.1943ZM1.45305 84.5829C1.71399 84.5835 1.96921 84.5066 2.18642 84.3619C2.40363 84.2173 2.57304 84.0114 2.67323 83.7704C2.77343 83.5294 2.79989 83.264 2.74926 83.008C2.69862 82.7519 2.57318 82.5166 2.3888 82.3319C2.20443 82.1472 1.96942 82.0214 1.71352 81.9704C1.45762 81.9193 1.19232 81.9454 0.951245 82.0453C0.710175 82.1452 0.504168 82.3144 0.359277 82.5315C0.214387 82.7486 0.13714 83.0038 0.137323 83.2648C0.137104 83.4378 0.170976 83.6092 0.236997 83.7691C0.303017 83.929 0.399912 84.0743 0.522107 84.1967C0.644302 84.3191 0.789376 84.4162 0.949116 84.4825C1.10886 84.5488 1.28012 84.5829 1.45305 84.5829ZM15.4267 84.5829C15.6876 84.5835 15.9429 84.5066 16.1601 84.3619C16.3773 84.2173 16.5467 84.0114 16.6469 83.7704C16.7471 83.5294 16.7736 83.264 16.7229 83.008C16.6723 82.7519 16.5469 82.5166 16.3625 82.3319C16.1781 82.1472 15.9431 82.0214 15.6872 81.9704C15.4313 81.9193 15.166 81.9454 14.9249 82.0453C14.6838 82.1452 14.4778 82.3144 14.333 82.5315C14.1881 82.7486 14.1108 83.0038 14.111 83.2648C14.1108 83.4378 14.1447 83.6092 14.2107 83.7691C14.2767 83.929 14.3735 84.0743 14.4957 84.1967C14.6179 84.3191 14.763 84.4162 14.9228 84.4825C15.0825 84.5488 15.2538 84.5829 15.4267 84.5829ZM29.5377 84.4437C29.7987 84.4446 30.0541 84.368 30.2716 84.2236C30.489 84.0792 30.6587 83.8734 30.7592 83.6324C30.8597 83.3915 30.8864 83.1261 30.836 82.8699C30.7856 82.6137 30.6603 82.3782 30.476 82.1933C30.2917 82.0085 30.0566 81.8824 29.8007 81.8313C29.5447 81.7801 29.2794 81.8061 29.0382 81.9059C28.797 82.0058 28.5909 82.175 28.4459 82.3921C28.3009 82.6092 28.2237 82.8645 28.2238 83.1256C28.2234 83.4747 28.3616 83.8096 28.608 84.0568C28.8543 84.304 29.1887 84.4431 29.5377 84.4437ZM1.31387 100.972C1.57488 100.972 1.83028 100.896 2.04774 100.751C2.2652 100.607 2.43489 100.401 2.53537 100.16C2.63585 99.9193 2.66259 99.6539 2.61216 99.3977C2.56174 99.1415 2.43642 98.9061 2.25212 98.7212C2.06781 98.5363 1.83283 98.4103 1.57688 98.3591C1.32092 98.3079 1.05555 98.3339 0.814376 98.4338C0.573198 98.5336 0.367064 98.7028 0.222091 98.9199C0.077118 99.1371 -0.000181002 99.3924 1.06344e-06 99.6535C-0.000442229 100.003 0.137719 100.337 0.384105 100.585C0.630491 100.832 0.96494 100.971 1.31387 100.972ZM15.2875 100.972C15.5485 100.972 15.804 100.896 16.0214 100.751C16.2389 100.607 16.4086 100.401 16.509 100.16C16.6095 99.9193 16.6363 99.6539 16.5858 99.3977C16.5354 99.1415 16.4101 98.9061 16.2258 98.7212C16.0415 98.5363 15.8065 98.4103 15.5505 98.3591C15.2946 98.3079 15.0292 98.3339 14.788 98.4338C14.5469 98.5336 14.3407 98.7028 14.1958 98.9199C14.0508 99.1371 13.9735 99.3924 13.9737 99.6535C13.9732 100.003 14.1114 100.337 14.3578 100.585C14.6042 100.832 14.9386 100.971 15.2875 100.972ZM29.4004 100.834C29.6615 100.835 29.9169 100.758 30.1344 100.614C30.3519 100.469 30.5216 100.263 30.622 100.022C30.7224 99.7808 30.7491 99.5153 30.6986 99.259C30.6481 99.0027 30.5227 98.7672 30.3384 98.5822C30.154 98.3972 29.9189 98.2712 29.6629 98.2199C29.4068 98.1687 29.1413 98.1946 28.9 98.2944C28.6587 98.3942 28.4524 98.5634 28.3073 98.7805C28.1621 98.9977 28.0847 99.253 28.0847 99.5142C28.0844 99.6873 28.1183 99.8588 28.1843 100.019C28.2502 100.179 28.3471 100.324 28.4692 100.447C28.5914 100.569 28.7365 100.667 28.8963 100.733C29.056 100.8 29.2273 100.834 29.4004 100.834ZM1.59038 117.361C1.85148 117.362 2.10701 117.286 2.3246 117.141C2.5422 116.997 2.7121 116.791 2.81273 116.55C2.91336 116.309 2.9402 116.044 2.88989 115.787C2.83958 115.531 2.71438 115.296 2.53011 115.11C2.34585 114.925 2.11084 114.799 1.85483 114.748C1.59881 114.697 1.33329 114.722 1.09197 114.822C0.850637 114.922 0.644353 115.091 0.499182 115.308C0.354012 115.525 0.276505 115.78 0.276503 116.042C0.276109 116.391 0.414229 116.726 0.660562 116.973C0.906895 117.221 1.24132 117.36 1.59038 117.361ZM15.5641 117.361C15.8252 117.362 16.0807 117.286 16.2983 117.141C16.5159 116.997 16.6857 116.791 16.7864 116.55C16.887 116.309 16.9139 116.044 16.8636 115.787C16.8133 115.531 16.6881 115.296 16.5038 115.11C16.3195 114.925 16.0845 114.799 15.8285 114.748C15.5724 114.697 15.307 114.722 15.0656 114.822C14.8243 114.922 14.618 115.091 14.4729 115.308C14.3277 115.525 14.2502 115.78 14.2502 116.042C14.2498 116.215 14.2836 116.386 14.3494 116.546C14.4152 116.706 14.5119 116.851 14.6339 116.974C14.7559 117.096 14.9008 117.194 15.0604 117.26C15.22 117.327 15.3912 117.361 15.5641 117.361ZM29.6769 117.222C29.9379 117.223 30.1932 117.146 30.4106 117.002C30.6279 116.857 30.7975 116.651 30.8979 116.41C30.9982 116.169 31.0248 115.904 30.9743 115.647C30.9238 115.391 30.7984 115.156 30.6141 114.971C30.4298 114.786 30.1947 114.66 29.9388 114.609C29.6828 114.558 29.4174 114.584 29.1762 114.683C28.935 114.783 28.7288 114.952 28.5837 115.169C28.4386 115.386 28.3612 115.642 28.3612 115.903C28.3609 116.076 28.3946 116.247 28.4606 116.407C28.5266 116.567 28.6234 116.713 28.7456 116.835C28.8678 116.958 29.0129 117.055 29.1727 117.122C29.3325 117.188 29.5038 117.222 29.6769 117.222ZM1.59038 133.75C1.85149 133.751 2.107 133.675 2.3246 133.53C2.54221 133.386 2.7121 133.18 2.81273 132.939C2.91336 132.698 2.94021 132.433 2.88989 132.176C2.83956 131.92 2.71435 131.684 2.53007 131.499C2.34578 131.314 2.11072 131.188 1.85469 131.137C1.59867 131.085 1.3332 131.111 1.09187 131.211C0.850549 131.311 0.64424 131.48 0.499092 131.697C0.353943 131.914 0.276469 132.169 0.276503 132.431C0.276158 132.78 0.414325 133.115 0.660653 133.362C0.90698 133.61 1.24135 133.749 1.59038 133.75ZM15.5641 133.75C15.8252 133.751 16.0807 133.675 16.2983 133.53C16.5159 133.386 16.6858 133.18 16.7864 132.939C16.887 132.698 16.9139 132.433 16.8636 132.176C16.8132 131.92 16.688 131.684 16.5037 131.499C16.3194 131.314 16.0844 131.188 15.8284 131.137C15.5723 131.085 15.3068 131.111 15.0655 131.211C14.8242 131.311 14.6179 131.48 14.4728 131.697C14.3276 131.914 14.2501 132.169 14.2502 132.431C14.2495 132.78 14.3876 133.115 14.634 133.363C14.8804 133.61 15.2149 133.749 15.5641 133.75ZM29.6769 133.611C29.9379 133.612 30.1933 133.535 30.4106 133.39C30.628 133.246 30.7976 133.04 30.8979 132.799C30.9982 132.558 31.0249 132.292 30.9743 132.036C30.9238 131.78 30.7984 131.545 30.6141 131.36C30.4297 131.175 30.1947 131.049 29.9387 130.998C29.6827 130.946 29.4173 130.972 29.1761 131.072C28.9349 131.172 28.7287 131.341 28.5836 131.558C28.4386 131.775 28.3611 132.031 28.3612 132.292C28.3609 132.465 28.3946 132.636 28.4606 132.796C28.5266 132.956 28.6234 133.102 28.7456 133.224C28.8678 133.347 29.0129 133.444 29.1727 133.511C29.3325 133.577 29.5038 133.611 29.6769 133.611ZM1.59038 150C1.85149 150.001 2.107 149.925 2.3246 149.78C2.54221 149.636 2.7121 149.43 2.81273 149.189C2.91336 148.948 2.94021 148.682 2.88989 148.426C2.83956 148.17 2.71435 147.934 2.53007 147.749C2.34578 147.564 2.11072 147.438 1.85469 147.387C1.59867 147.335 1.3332 147.361 1.09187 147.461C0.850549 147.561 0.64424 147.73 0.499092 147.947C0.353943 148.164 0.276469 148.419 0.276503 148.681C0.276158 149.03 0.414325 149.365 0.660653 149.612C0.90698 149.86 1.24135 149.999 1.59038 150ZM15.5641 150C15.8252 150.001 16.0807 149.925 16.2983 149.78C16.5159 149.636 16.6858 149.43 16.7864 149.189C16.887 148.948 16.9139 148.682 16.8636 148.426C16.8132 148.17 16.688 147.934 16.5037 147.749C16.3194 147.564 16.0844 147.438 15.8284 147.387C15.5723 147.335 15.3068 147.361 15.0655 147.461C14.8242 147.561 14.6179 147.73 14.4728 147.947C14.3276 148.164 14.2501 148.419 14.2502 148.681C14.2495 149.03 14.3876 149.365 14.634 149.612C14.8804 149.86 15.2149 149.999 15.5641 150ZM29.6769 149.861C29.9379 149.862 30.1933 149.785 30.4106 149.64C30.628 149.496 30.7976 149.29 30.8979 149.049C30.9982 148.808 31.0249 148.542 30.9743 148.286C30.9238 148.03 30.7984 147.794 30.6141 147.61C30.4297 147.425 30.1947 147.299 29.9387 147.248C29.6827 147.196 29.4173 147.222 29.1761 147.322C28.9349 147.422 28.7287 147.591 28.5836 147.808C28.4386 148.025 28.3611 148.281 28.3612 148.542C28.3609 148.715 28.3946 148.886 28.4606 149.046C28.5266 149.206 28.6234 149.352 28.7456 149.474C28.8678 149.597 29.0129 149.694 29.1727 149.76C29.3325 149.827 29.5038 149.861 29.6769 149.861Z" fill="#9E9E9E"/>
</svg>
