<svg width="30" height="30" viewBox="0 0 30 30" fill="none" xmlns="http://www.w3.org/2000/svg">
<path d="M3.6381 0.00012207C1.43828 0.00012207 0 1.51137 0 3.49769C0 5.44015 1.39544 6.99449 3.55369 6.99449H3.59544C5.83828 6.99449 7.23409 5.44015 7.23409 3.49769C7.19216 1.51137 5.83828 0.00012207 3.6381 0.00012207Z" fill="#A8A8A8"/>
<path d="M0.380371 9.75818H6.81136V29.9999H0.380371V9.75818Z" fill="#A8A8A8"/>
<path d="M22.5964 9.28284C19.1271 9.28284 16.8008 12.6934 16.8008 12.6934V9.75791H10.3696V29.9997H16.8004V18.6959C16.8004 18.0907 16.8424 17.4865 17.0123 17.0538C17.4772 15.8454 18.5352 14.5936 20.3118 14.5936C22.6389 14.5936 23.5696 16.4498 23.5696 19.171V29.9997H30.0001V18.3934C30.0001 12.176 26.8272 9.28284 22.5964 9.28284Z" fill="#A8A8A8"/>
</svg>
